<?xml version="1.0" encoding="UTF-8"?>
<!--
  SPDX-License-Identifier: CC0-1.0
  Placeholder symbolic icon for Inversée. Replace with a hand-tuned
  symbolic variant once available.
-->
<svg xmlns="http://www.w3.org/2000/svg" width="16" height="16" viewBox="0 0 16 16">
  <g fill="currentColor">
    <path d="M 3 1 C 1.892 1 1 1.892 1 3 L 1 13 C 1 14.108 1.892 15 3 15 L 13 15 C 14.108 15 15 14.108 15 13 L 15 3 C 15 1.892 14.108 1 13 1 Z M 3 2 L 13 2 C 13.554 2 14 2.446 14 3 L 14 13 C 14 13.554 13.554 14 13 14 L 3 14 C 2.446 14 2 13.554 2 13 L 2 3 C 2 2.446 2.446 2 3 2 Z"/>
    <rect x="3" y="3" width="10" height="3" rx="0.5"/>
    <rect x="3" y="7.5" width="2" height="2" rx="0.3"/>
    <rect x="6" y="7.5" width="2" height="2" rx="0.3"/>
    <rect x="9" y="7.5" width="2" height="2" rx="0.3"/>
    <rect x="3" y="10.5" width="2" height="2" rx="0.3"/>
    <rect x="6" y="10.5" width="2" height="2" rx="0.3"/>
    <rect x="9" y="10.5" width="2" height="2" rx="0.3"/>
    <rect x="12" y="7.5" width="1" height="5" rx="0.4"/>
  </g>
</svg>
