<?xml version="1.0" encoding="UTF-8" standalone="no"?>
<!-- Created with Inkscape (http://www.inkscape.org/) -->

<svg
   width="64"
   height="64"
   version="1.1"
   viewBox="0 0 16.933 16.933"
   id="svg6"
   sodipodi:docname="inversee.svg"
   xml:space="preserve"
   inkscape:version="1.4.4 (dcaf3e7d9e, 2026-05-05)"
   xmlns:inkscape="http://www.inkscape.org/namespaces/inkscape"
   xmlns:sodipodi="http://sodipodi.sourceforge.net/DTD/sodipodi-0.dtd"
   xmlns="http://www.w3.org/2000/svg"
   xmlns:svg="http://www.w3.org/2000/svg"
   xmlns:sketch="http://www.bohemiancoding.com/sketch/ns"><defs
     id="defs6" /><sodipodi:namedview
     id="namedview6"
     pagecolor="#ffffff"
     bordercolor="#000000"
     borderopacity="0.25"
     inkscape:showpageshadow="2"
     inkscape:pageopacity="0.0"
     inkscape:pagecheckerboard="0"
     inkscape:deskcolor="#d1d1d1"
     inkscape:zoom="1.2167209"
     inkscape:cx="-126.98065"
     inkscape:cy="-135.19946"
     inkscape:window-width="1920"
     inkscape:window-height="1131"
     inkscape:window-x="0"
     inkscape:window-y="0"
     inkscape:window-maximized="1"
     inkscape:current-layer="svg6" /><path
     id="rect6-6"
     style="fill:#cf354f;stroke-width:0.748338"
     d="M 8.5558985 0 A 16.93312 8.46656 0 0 0 8.4665 0.0025837708 L 8.4665 16.930416 A 16.93312 8.46656 0 0 0 8.5558985 16.933 A 16.93312 8.46656 0 0 0 14.290836 16.416763 A 2.6458 2.6458 0 0 0 16.416246 14.290836 A 8.46656 16.93312 0 0 0 16.933 8.5326445 A 8.46656 16.93312 0 0 0 16.933 8.4003555 A 8.46656 16.93312 0 0 0 16.416246 2.642164 A 2.6458 2.6458 0 0 0 14.290836 0.5162374 A 16.93312 8.46656 0 0 0 8.5558985 0 z " /><g
     transform="matrix(.26458 0 0 .26458 8.4665 8.4665)"
     id="g1" /><path
     id="rect6-5"
     style="fill:#5e5e5e;stroke-width:0.529156"
     d="M 0.0031005249 8.4665 A 8.46656 16.93312 0 0 0 0 8.5745016 A 8.46656 16.93312 0 0 0 0.5162374 14.290836 A 2.6458 2.6458 0 0 0 2.642164 16.416763 A 16.93312 8.46656 0 0 0 8.3771015 16.933 A 16.93312 8.46656 0 0 0 8.4665 16.930416 L 8.4665 8.4665 L 0.0031005249 8.4665 z " /><g
     transform="matrix(.26458 0 0 .26458 8.4665 8.4665)"
     id="g6" /><g
     transform="matrix(.26458 0 0 .26458 8.4665 8.4665)"
     id="g7"><path
       id="path7"
       style="fill:#4d4d4d;fill-opacity:1"
       d="M -0.33984134 -31.999773 A 64 32 0 0 0 -22.013516 -30.048615 A 10 10 0 0 0 -30.048615 -22.013516 A 32 64 0 0 0 -31.999773 -0.40820023 A 32 64 0 0 0 -31.988055 7.1054274e-15 L 7.1054274e-15 7.1054274e-15 L 7.1054274e-15 -31.990008 A 64 32 0 0 0 -0.33984134 -31.999773 z " /></g><path
     d="M 6.3498764,4.23325 H 5.2915698 V 3.1749368 c 0,-0.2923586 -0.2369332,-0.5291559 -0.5291599,-0.5291559 -0.2922266,0 -0.5291599,0.2367973 -0.5291599,0.5291559 V 4.23325 H 3.1749435 c -0.2922266,0 -0.5291599,0.2367973 -0.5291599,0.5291559 0,0.2923586 0.2369333,0.5291559 0.5291599,0.5291559 H 4.23325 v 1.0583119 c 0,0.2923586 0.2369333,0.5291572 0.5291599,0.5291572 0.2922267,0 0.5291599,-0.2367986 0.5291599,-0.5291572 V 5.2915618 h 1.0583066 c 0.2922266,0 0.5291599,-0.2367973 0.5291599,-0.5291559 0,-0.2923586 -0.2369333,-0.5291559 -0.5291599,-0.5291559"
     id="plus"
     sketch:type="MSShapeGroup"
     style="fill:#ffffff;fill-rule:evenodd;stroke:none;stroke-width:0.132289" /><path
     d="M 6.259088,12.918932 5.5107523,12.170597 6.2590926,11.422256 c 0.206729,-0.206729 0.2066327,-0.541706 -2.8e-6,-0.748342 -0.2066354,-0.206635 -0.5416133,-0.206732 -0.7483423,-3e-6 L 4.7624072,11.422252 4.0140715,10.673916 c -0.2066355,-0.206635 -0.5416134,-0.206732 -0.7483424,-3e-6 -0.206729,0.206729 -0.2066326,0.541707 2.8e-6,0.748343 l 0.7483357,0.748335 -0.7483396,0.74834 c -0.2067284,0.206728 -0.2066334,0.541707 2e-6,0.748343 0.2066355,0.206635 0.5416148,0.20673 0.7483431,2e-6 l 0.7483396,-0.74834 0.7483357,0.748336 c 0.2066355,0.206635 0.5416134,0.206732 0.7483424,3e-6 0.206729,-0.206729 0.2066326,-0.541707 -2.8e-6,-0.748343"
     id="path8"
     sketch:type="MSShapeGroup"
     style="fill:#ffffff;fill-rule:evenodd;stroke:none;stroke-width:0.132289" /><path
     id="path9"
     style="fill:#ffffff;stroke-width:0.30211"
     d="m 14.023324,4.2689335 c -0.132126,0.00914 -0.257699,0.067084 -0.34961,0.1660156 -0.09142,0.098406 -0.141218,0.2281365 -0.140625,0.3613281 v 4.9111251 c 4.3e-5,0.02049 -6.37e-4,0.03021 0,0.04297 3.08e-4,0.0062 0.0014,0.0086 0.002,0.01172 -0.0024,0.0059 -0.0058,0.01157 -0.0059,0.01172 -0.002,0.02059 -0.0033,0.03212 -0.0039,0.04492 -1.2e-5,6.5e-4 -1.2e-5,0.0013 0,0.002 v 0.002 c -0.0011,0.0054 -0.002,0.0099 -0.0039,0.01953 -0.0028,0.01427 -0.0042,0.01953 -0.0059,0.0293 -0.0031,0.0097 -0.0069,0.01725 -0.01172,0.0332 -0.0043,0.0144 -0.0063,0.02016 -0.0078,0.02539 -1.04e-4,3.7e-4 10e-5,0.0016 0,0.0019 -1.2e-5,6.5e-4 -1.2e-5,0.0013 0,0.002 -6.67e-4,-1.2e-5 -0.0013,-1.2e-5 -0.002,0 -0.0015,0.0054 -0.0022,0.0086 -0.002,0.0078 6.7e-5,-1.89e-4 -2.63e-4,0.0029 0,0.002 -0.003,0.0065 -0.0068,0.01151 -0.01172,0.02344 -0.0061,0.01476 -0.0077,0.02283 -0.0098,0.0293 0.0021,-0.0018 0.0041,-0.0038 0.0059,-0.0059 -0.0078,0.0087 -0.01259,0.01964 -0.01367,0.03125 l 0.002,-0.0078 c -2.89e-4,8.14e-4 -0.0018,0.0015 -0.002,0.002 -5.36e-4,4.53e-4 -0.0039,0.0026 -0.0098,0.01367 -0.0063,0.0119 -0.0074,0.01655 -0.0098,0.02148 -7.19e-4,0.0013 -0.0014,0.0026 -0.002,0.0039 -7.19e-4,0.0013 -0.0014,0.0026 -0.002,0.0039 -0.0051,0.0069 -0.0084,0.01496 -0.0098,0.02344 l 0.0081,-0.02147 c -6.93e-4,9.6e-4 -0.0084,0.01059 -0.01953,0.02734 -0.0079,0.01192 -0.01146,0.01686 -0.01563,0.02344 l -0.002,0.0019 c -7.19e-4,0.0013 -0.0014,0.0026 -0.002,0.0039 -9.39e-4,0.0015 -0.003,0.0044 -0.0039,0.0059 -0.0043,0.005 -0.0098,0.008 -0.01758,0.01758 -0.0093,0.01141 -0.01094,0.01761 -0.01367,0.02148 l -0.002,0.0019 c -7.46e-4,6.86e-4 -0.0024,4.56e-4 -0.0039,0.002 -0.0015,0.0015 -0.0055,0.0073 -0.0059,0.0078 -0.0047,0.0047 -0.0096,0.0077 -0.01758,0.01563 -0.01064,0.01066 -0.01491,0.01647 -0.02148,0.02344 -0.0066,0.0048 -0.01525,0.0099 -0.0293,0.02148 -0.0155,0.01275 -0.02255,0.02071 -0.02344,0.02148 -0.0068,0.0039 -0.01414,0.0074 -0.0293,0.01758 -0.01447,0.0097 -0.01897,0.0146 -0.01953,0.01563 -9.7e-5,1.75e-4 -0.0043,0.0022 -0.0039,0.002 -0.0017,9.95e-4 -0.0031,0.0014 -0.0039,0.0019 -0.0015,0.0011 -0.0031,0.0033 -0.0039,0.0039 -0.0019,0.0011 -0.0036,0.0017 -0.0039,0.0019 -0.0049,0.0023 -0.0094,0.0053 -0.02148,0.01172 -0.0141,0.0076 -0.01936,0.01014 -0.02539,0.01367 -0.0022,0.0013 -0.008,0.0028 -0.0098,0.0039 -0.0067,0.0025 -0.01253,0.0036 -0.02734,0.0098 -0.01133,0.0047 -0.0134,0.0077 -0.01758,0.0098 -3.58e-4,1.79e-4 -0.0016,-1.59e-4 -0.002,0 -0.01101,0.0026 -0.02218,0.0054 -0.04297,0.01172 -0.02131,0.0065 -0.03304,0.01173 -0.04297,0.01563 -0.002,5.37e-4 -0.004,0.0012 -0.0059,0.0019 -0.0039,5.6e-4 -0.0051,2.49e-4 -0.01367,0.002 -0.0107,0.0021 -0.01386,0.0028 -0.01758,0.0039 -0.0013,-3.7e-5 -0.0056,-1.5e-5 -0.0059,0 -0.01285,5.5e-4 -0.02422,0.0019 -0.04492,0.0039 -0.0175,0.0017 -0.02739,0.0032 -0.0332,0.0039 -0.01003,-3.25e-4 -0.0175,-2e-6 -0.0332,0 h -1.293243 l 0.308594,-0.308594 c 0.09857,-0.09857 0.154297,-0.2332867 0.154297,-0.3730467 0,-0.139568 -0.05486,-0.2755604 -0.154297,-0.3750003 -0.09857,-0.098568 -0.233287,-0.154297 -0.373047,-0.154297 -0.139568,0 -0.27556,0.054857 -0.375,0.154297 l -1.2050785,1.205078 -0.0039,0.0039 c -0.01553,0.01551 -0.02491,0.02705 -0.0332,0.03711 -0.00297,0.003 -0.00558,0.0062 -0.0078,0.0098 -7.33e-4,0.0014 -0.0013,0.0025 -0.002,0.0039 v 0.0019 l -0.002,0.002 c -0.00143,0.0019 -0.00273,0.0038 -0.0039,0.0059 -4.8e-4,8.4e-4 -0.0016,0.0032 -0.002,0.0039 -0.003,0.0041 -0.0059,0.0067 -0.0078,0.0098 -0.0011,0.0017 -0.0028,0.0043 -0.0039,0.0059 l -0.002,0.002 -0.002,0.0019 c -2.25e-4,2.83e-4 3.9e-5,0.0019 0,0.002 -0.00211,0.0018 -0.00409,0.0038 -0.0059,0.0059 -0.0033,0.0048 -0.007,0.01044 -0.0098,0.01563 -0.0057,0.0095 -0.01081,0.01795 -0.01563,0.02734 -0.0021,0.0034 -0.0036,0.0072 -0.0039,0.0078 -9.65e-4,0.0032 -0.00163,0.0065 -0.002,0.0098 -8.62e-4,0.002 -0.0013,0.0041 -0.002,0.0059 0,0 0.02025,0.01256 0.0332,0.02148 -0.00862,-0.0096 -0.020394,-0.01586 -0.0332,-0.01758 -6.666e-4,-1.2e-5 -0.00133,-1.2e-5 -0.002,0 -2.42e-4,6.22e-4 -0.0017,0.0014 -0.002,0.002 l -0.002,0.0019 c -2.34e-4,6.51e-4 1.88e-4,0.0014 0,0.002 -2.51e-4,4.8e-4 2.47e-4,0.0015 0,0.0019 -0.0012,0.0024 -0.0028,0.0054 -0.0039,0.0078 -6.833e-4,6.33e-4 -0.00135,0.0013 -0.002,0.0019 -0.0039,0.01009 -0.0054,0.0158 -0.0059,0.01758 -0.004,0.01091 -0.0081,0.02403 -0.01172,0.03711 -0.0027,0.0092 -0.0049,0.01779 -0.0059,0.02734 -0.0029,0.01077 -0.0074,0.02286 -0.0098,0.04102 -0.0051,0.03916 -0.0027,0.07395 0,0.105469 -1.32e-4,-10e-6 -0.002,-4e-6 -0.002,0 -4e-5,4.09e-4 -1.12e-4,0.0076 0,0.0098 1.11e-4,0.0022 -2.16e-4,0.0035 0,0.0059 2.61e-4,0.0029 0.0015,0.008 0.002,0.01172 v 0.002 c 4.721e-4,0.0026 0.00114,0.0053 0.002,0.0078 0.0034,0.02351 0.0079,0.04571 0.01367,0.06641 0.0041,0.01559 0.0091,0.0333 0.01563,0.05078 2.98e-4,10e-4 5.02e-4,0.0021 0.002,0.0059 6.498e-4,6.67e-4 0.00132,0.0013 0.002,0.0019 0.0018,0.0041 0.0037,0.0098 0.0059,0.01367 7.86e-4,0.0017 0.0012,0.0031 0.0039,0.0078 6.666e-4,1.2e-5 0.00133,1.2e-5 0.002,0 -1.17e-5,6.5e-4 -1.17e-5,0.0013 0,0.0019 0.0044,0.0098 0.01053,0.02969 0.02344,0.05078 0.00127,7.02e-4 0.00257,0.0014 0.0039,0.002 3.42e-4,6.35e-4 -3.95e-4,0.0012 0,0.0019 0.0026,0.0047 0.0066,0.01024 0.01172,0.01758 0.0081,0.01188 0.01491,0.02021 0.01758,0.02344 0.00109,0.0027 0.00239,0.0053 0.0039,0.0078 0.01479,0.0195 0.02901,0.03445 0.04102,0.04687 2.08e-4,2.17e-4 0.0032,0.0036 0.0059,0.0059 h 0.002 c 0.0018,0.0014 0.0029,0.0033 0.0039,0.0039 l 1.1972665,1.195312 c 0.09587,0.104582 0.229862,0.167762 0.373047,0.171875 0.145281,0.0042 0.285208,-0.05325 0.386718,-0.154297 0.103106,-0.101965 0.158427,-0.242723 0.154949,-0.386698 -0.0034,-0.142681 -0.06575,-0.276662 -0.169922,-0.373047 l -0.002,-0.0039 -0.300781,-0.302734 h 1.29325 c 0.45613,-2.32e-4 0.904143,-0.184925 1.226609,-0.507809 0.32244,-0.322858 0.508165,-0.772079 0.507813,-1.2285147 V 4.7962773 C 14.586449,4.6506883 14.526366,4.5116122 14.419808,4.4115116 14.31452,4.3126061 14.173052,4.2603998 14.029183,4.2689335 h -0.002 c -0.0013,-4.67e-5 -0.0026,-4.67e-5 -0.0039,0 z m -0.558594,5.7451085 0.0039,-0.0098 c -2.86e-4,5.19e-4 -0.0032,0.0059 -0.0039,0.0078 -2.84e-4,7.56e-4 0,0.0014 0,0.0019 z"
     sodipodi:nodetypes="csccsccccccccsccccccccccccccccccccccsccccccccssccccccccscccccccsccccscsscccccccccccccccccccccccccccccccccccsscccccccccccccccccscccccccccccsccscccccccsc" /></svg>
